<?xml version="1.0" standalone="no"?>
<!DOCTYPE svg PUBLIC "-//W3C//DTD SVG 20010904//EN"
 "http://www.w3.org/TR/2001/REC-SVG-20010904/DTD/svg10.dtd">
<svg version="1.0" xmlns="http://www.w3.org/2000/svg"
 width="134.000000pt" height="134.000000pt" viewBox="0 0 134.000000 134.000000"
 preserveAspectRatio="xMidYMid meet">
<metadata>
Created by potrace 1.14, written by Peter Selinger 2001-2017
</metadata>
<g transform="translate(0.000000,134.000000) scale(0.100000,-0.100000)"
fill="#000000" stroke="none">
<path d="M963 1090 c-39 -16 -98 -84 -111 -126 -9 -31 -9 -55 -1 -99 13 -70
30 -99 83 -136 35 -26 47 -29 113 -29 61 0 81 4 106 22 120 85 133 254 25 340
-36 28 -48 32 -117 35 -42 1 -86 -1 -98 -7z m137 -65 c59 -31 91 -106 71 -168
-40 -120 -206 -120 -240 0 -15 53 5 118 47 153 41 33 77 38 122 15z"/>
<path d="M150 900 l0 -190 35 0 34 0 3 67 3 68 46 6 c88 13 112 40 112 128 0
49 -4 58 -32 83 -29 26 -37 28 -116 28 l-85 0 0 -190z m148 118 c13 -13 16
-56 6 -82 -4 -11 -19 -16 -45 -16 l-39 0 0 48 c0 27 3 52 7 55 11 11 58 8 71
-5z"/>
<path d="M419 908 c-79 -100 -145 -185 -147 -190 -2 -4 17 -8 42 -8 42 0 48 3
78 44 27 36 40 45 75 51 63 9 83 -6 83 -61 l0 -45 43 3 42 3 3 193 2 192 -38
0 c-38 0 -40 -3 -183 -182z m141 -1 c0 -20 -23 -32 -46 -23 -13 5 -12 10 7 37
22 32 39 26 39 -14z"/>
<path d="M669 1086 c-2 -2 -3 -88 -1 -190 l3 -186 88 0 c86 0 89 1 93 25 7 33
3 35 -54 35 l-48 0 0 160 0 160 -38 0 c-21 0 -41 -2 -43 -4z"/>
<path d="M293 540 c-37 -50 -108 -141 -156 -201 l-88 -109 50 0 c55 0 64 6
107 74 27 44 31 46 75 46 57 0 69 -12 69 -72 l0 -48 39 0 c23 0 40 5 42 13 2
6 4 95 4 197 l0 185 -37 3 c-35 3 -38 0 -105 -88z m63 -99 c-3 -20 -5 -37 -6
-38 -1 -7 -49 -2 -54 5 -8 13 44 83 55 76 6 -3 8 -22 5 -43z"/>
<path d="M478 623 c-2 -5 -3 -28 -2 -53 1 -25 2 -110 3 -190 l1 -146 88 2 87
2 0 34 c0 33 0 33 -52 36 l-53 3 0 160 0 159 -34 0 c-19 0 -36 -3 -38 -7z"/>
<path d="M638 619 c-7 -21 4 -69 14 -63 5 3 20 3 33 0 24 -6 24 -7 24 -139 -1
-206 -4 -187 36 -187 40 0 37 -18 35 193 l0 127 34 0 c36 0 44 10 42 50 -1 25
-2 25 -108 28 -75 2 -107 -1 -110 -9z"/>
<path d="M939 609 c-20 -12 -50 -43 -68 -70 -84 -128 -5 -298 146 -316 112
-13 201 54 222 168 11 59 11 68 -9 114 -26 61 -44 82 -92 106 -52 27 -151 26
-199 -2z m181 -87 c38 -37 40 -42 40 -97 0 -55 -2 -60 -40 -97 -48 -44 -86
-49 -138 -18 -80 49 -80 181 0 230 52 31 90 26 138 -18z"/>
<path d="M1026 509 c-9 -13 -16 -29 -16 -35 0 -7 -8 -10 -20 -7 -26 7 -50 -13
-50 -43 0 -29 20 -42 32 -20 11 20 34 21 42 1 8 -21 -3 -45 -20 -45 -8 0 -14
-4 -14 -10 0 -9 14 -14 24 -7 2 1 13 -7 25 -17 12 -11 21 -14 21 -8 0 7 9 12
19 12 27 0 38 20 17 32 -18 10 -22 43 -5 54 6 3 16 1 22 -5 17 -17 34 -13 40
9 6 24 -16 50 -43 50 -10 0 -27 14 -38 31 l-19 31 -17 -23z"/>
</g>
</svg>
